<?xml version="1.0" standalone="no"?>
<!DOCTYPE svg PUBLIC "-//W3C//DTD SVG 20010904//EN"
 "http://www.w3.org/TR/2001/REC-SVG-20010904/DTD/svg10.dtd">
<svg version="1.0" xmlns="http://www.w3.org/2000/svg"
 width="211.000000pt" height="211.000000pt" viewBox="0 0 211.000000 211.000000"
 preserveAspectRatio="xMidYMid meet">
<metadata>
Created by potrace 1.14, written by Peter Selinger 2001-2017
</metadata>
<g transform="translate(0.000000,211.000000) scale(0.100000,-0.100000)"
fill="#000000" stroke="none">
<path d="M2 2088 c2 -13 9 -22 16 -20 8 1 11 -2 7 -8 -3 -6 -11 -8 -16 -5 -5
4 -9 -3 -9 -14 0 -16 8 -21 38 -24 l37 -4 -37 -1 -37 -2 1 -86 c0 -84 0 -85
19 -68 11 10 19 12 19 6 0 -19 18 -14 23 6 2 9 3 7 2 -5 -3 -28 0 -28 23 -5
19 20 28 52 13 52 -5 0 -8 11 -5 25 3 20 -1 28 -21 37 -25 11 -35 30 -13 26
22 -5 47 -33 48 -53 1 -60 4 -67 16 -50 10 13 12 13 17 1 3 -8 -1 -17 -9 -20
-9 -3 -12 -11 -9 -16 4 -7 19 -3 40 10 l33 21 -5 -22 c-4 -16 -3 -20 6 -15 8
5 7 -5 -4 -31 l-15 -38 20 25 c20 26 29 10 11 -19 -11 -17 4 -51 21 -51 9 0 9
3 0 12 -18 18 -14 45 7 51 14 3 18 1 14 -9 -3 -8 -9 -14 -15 -14 -5 0 -6 -5
-3 -10 5 -8 12 -7 23 2 14 12 14 10 2 -12 -23 -44 -55 -67 -44 -32 5 15 3 14
-10 -2 -9 -11 -18 -17 -21 -14 -3 3 1 11 10 18 14 12 14 15 -2 32 -16 18 -17
18 -31 -4 -7 -13 -11 -16 -8 -6 2 9 -4 24 -15 34 -11 10 -19 12 -19 6 0 -7 5
-12 11 -12 6 0 9 -9 6 -20 -5 -21 15 -44 28 -32 5 4 5 1 1 -6 -6 -11 -12 -10
-27 4 -11 9 -17 20 -14 22 3 3 -2 16 -10 29 -9 13 -13 28 -10 33 3 5 0 12 -6
16 -8 4 -9 3 -5 -4 10 -17 -9 -15 -24 3 -7 8 -16 13 -20 10 -5 -3 -11 1 -13 7
-3 7 -4 -2 -2 -20 5 -46 -3 -66 -21 -51 -11 9 -14 8 -14 -2 1 -18 25 -50 33
-43 3 3 3 -4 0 -16 -6 -22 -6 -21 -18 6 -11 26 -13 22 -12 -44 1 -62 3 -72 16
-67 11 3 10 0 -3 -10 -36 -28 -7 -118 38 -120 5 0 11 -7 13 -15 3 -10 2 -11
-4 -4 -4 6 -16 10 -25 8 -10 -1 -18 2 -18 7 0 5 -4 9 -10 9 -7 0 -10 -253 -10
-740 l0 -740 55 0 c52 0 57 2 93 41 20 23 42 51 49 63 7 11 12 15 13 8 0 -7
-18 -32 -40 -56 -22 -24 -40 -46 -40 -49 0 -4 374 -7 831 -7 629 0 829 3 823
11 -5 8 -3 9 7 3 8 -5 48 -10 90 -11 71 -2 77 0 83 20 7 28 0 35 -9 8 -3 -12
-11 -21 -16 -21 -6 0 -7 5 -4 10 3 6 1 10 -5 10 -6 0 -3 11 6 25 9 14 14 28
11 32 -3 3 -14 -11 -23 -30 -10 -20 -21 -34 -26 -31 -5 3 -4 12 3 20 6 8 9 17
6 20 -3 3 -12 -7 -20 -22 -8 -16 -17 -22 -21 -16 -3 6 -2 13 4 17 5 3 10 12
10 18 0 8 -3 8 -9 -1 -6 -10 -10 -10 -21 3 -10 12 -10 15 0 15 8 0 10 3 7 6
-3 4 0 16 8 28 8 11 15 27 14 36 0 10 -2 11 -6 2 -2 -6 -9 -10 -14 -7 -5 4 -6
-2 -2 -11 4 -12 3 -15 -5 -10 -8 5 -10 1 -5 -10 5 -13 3 -15 -7 -9 -9 5 -11 4
-6 -3 4 -6 2 -21 -4 -32 -9 -16 -8 -25 2 -38 9 -13 7 -12 -10 2 -22 19 -31 11
-12 -12 5 -7 3 -6 -6 2 -14 12 -12 20 16 77 18 35 36 66 41 67 5 2 7 8 3 13
-3 5 0 9 5 9 6 0 11 -6 11 -12 0 -7 5 -5 11 5 7 13 7 22 0 31 -6 7 -8 16 -4
19 3 4 -2 7 -12 7 -10 0 -15 3 -12 6 3 4 2 14 -3 23 -5 10 -5 23 0 30 6 10 9
8 15 -8 3 -11 11 -21 16 -21 12 0 12 17 -1 25 -6 4 -8 11 -4 16 3 5 11 6 17 2
7 -4 6 1 -2 11 -11 13 -16 14 -22 4 -5 -8 -8 -5 -6 10 1 20 7 22 72 24 l70 2
-75 6 -75 6 80 2 c49 2 75 6 66 11 -9 6 -5 8 14 8 17 0 22 -2 15 -7 -7 -4 3
-7 23 -7 20 1 33 5 31 9 -3 4 -1 8 4 8 5 0 9 19 8 43 0 31 -7 49 -25 67 -13
14 -19 17 -12 8 11 -14 10 -20 -2 -33 -9 -8 -19 -24 -22 -35 -3 -11 -11 -20
-17 -20 -5 0 -1 16 11 36 23 39 25 44 13 44 -5 0 -17 -18 -27 -40 -10 -22 -22
-40 -27 -40 -4 0 4 24 18 52 15 30 20 47 12 40 -8 -6 -23 -30 -33 -52 -10 -22
-22 -40 -27 -40 -5 0 -4 9 2 19 18 34 30 72 22 67 -5 -3 -17 -23 -27 -46 -10
-22 -22 -40 -27 -40 -5 0 -4 9 2 19 18 34 30 72 22 67 -5 -3 -17 -23 -27 -46
-12 -26 -25 -40 -37 -40 -22 0 -22 1 -3 48 10 24 12 38 5 40 -5 2 -10 8 -10
14 0 5 6 8 13 5 6 -2 18 5 25 17 9 13 11 15 8 4 -3 -12 -1 -15 9 -11 8 3 12 9
9 14 -3 5 2 9 11 9 12 0 15 -6 10 -22 -5 -18 -4 -20 4 -8 9 12 12 13 20 1 6
-10 10 -10 16 -1 4 6 14 9 22 6 9 -4 22 -1 29 5 10 8 14 8 14 1 0 -6 6 -9 14
-6 13 5 14 78 13 492 -2 467 -3 487 -20 484 -15 -3 -17 1 -12 18 5 15 0 26
-17 41 l-23 21 24 -15 c13 -9 30 -13 38 -10 11 5 11 9 -4 27 -16 19 -16 19 0
7 14 -11 17 -11 17 2 0 8 -6 18 -12 20 -10 4 -10 6 0 6 8 1 12 24 12 79 0 53
-3 72 -10 62 -6 -9 -10 -10 -10 -3 0 6 4 15 10 18 6 4 9 67 9 161 l-2 154
-633 0 c-390 0 -634 -4 -634 -9 0 -6 5 -13 10 -16 6 -3 10 -1 10 6 0 7 4 8 13
2 6 -5 73 -8 147 -7 126 3 136 2 136 -15 0 -11 -6 -17 -13 -14 -7 3 -10 9 -7
14 3 5 -6 9 -20 9 -14 0 -26 -5 -26 -11 0 -5 5 -7 12 -3 7 5 8 3 4 -5 -6 -9
-13 -8 -29 6 -20 17 -20 17 -13 -2 6 -16 5 -18 -5 -7 -7 6 -17 12 -22 12 -4 0
-5 -6 -1 -12 6 -10 4 -10 -7 0 -7 6 -17 12 -22 12 -4 0 -5 -6 -1 -12 6 -10 4
-10 -7 0 -7 6 -17 12 -22 12 -4 0 -5 -6 -1 -12 6 -10 4 -10 -7 0 -7 6 -17 12
-22 12 -4 0 -5 -6 -1 -12 6 -10 4 -10 -7 0 -7 6 -17 12 -22 12 -4 0 -5 -6 -1
-12 6 -10 4 -10 -7 0 -7 6 -17 12 -22 12 -4 0 -5 -6 -1 -12 6 -10 4 -10 -7 0
-7 6 -17 12 -22 12 -4 0 -5 -6 -1 -12 6 -10 4 -10 -7 0 -7 6 -17 12 -22 12 -4
0 -5 -6 -1 -12 6 -10 4 -10 -7 0 -7 6 -17 12 -22 12 -4 0 -5 -6 -1 -12 6 -10
4 -10 -7 0 -7 6 -17 12 -22 12 -4 0 -5 -6 -1 -12 6 -10 4 -10 -7 0 -7 6 -17
12 -22 12 -4 0 -5 -6 -1 -12 6 -10 4 -10 -7 0 -7 6 -17 12 -22 12 -4 0 -5 -6
-1 -12 6 -10 4 -10 -7 0 -7 6 -17 12 -22 12 -4 0 -5 -6 -1 -12 6 -10 4 -10 -7
0 -7 6 -17 12 -22 12 -4 0 -5 -6 -1 -12 6 -10 4 -10 -7 0 -7 6 -17 12 -22 12
-4 0 -5 -6 -1 -12 6 -10 4 -10 -7 0 -7 6 -17 12 -22 12 -4 0 -5 -6 -1 -12 6
-10 4 -10 -7 0 -7 6 -17 12 -22 12 -4 0 -5 -6 -1 -12 6 -10 4 -10 -7 0 -7 6
-17 12 -22 12 -4 0 -5 -6 -1 -12 6 -10 4 -10 -7 0 -7 6 -17 12 -22 12 -4 0 -5
-6 -1 -12 6 -10 4 -10 -7 0 -7 6 -17 12 -22 12 -4 0 -5 -6 -1 -12 6 -10 4 -10
-7 0 -7 6 -17 12 -22 12 -4 0 -5 -6 -1 -12 6 -10 4 -10 -7 0 -7 6 -17 12 -22
12 -4 0 -5 -6 -1 -12 6 -10 4 -10 -7 0 -15 14 -33 16 -24 3 3 -5 1 -13 -5 -16
-6 -4 -9 -1 -8 7 2 8 -7 13 -27 13 -16 0 -33 4 -37 10 -9 13 -22 -1 -13 -14 3
-6 19 -11 36 -11 29 0 39 -13 19 -25 -5 -3 -10 -2 -10 2 0 5 -9 9 -20 10 -11
1 -20 -3 -20 -9 0 -7 -5 -6 -14 1 -10 8 -15 8 -18 1 -2 -6 -16 -13 -31 -16
-18 -3 -26 -1 -22 6 3 5 1 10 -4 10 -6 0 -11 -4 -11 -9 0 -13 26 -32 34 -24 4
4 4 0 0 -10 -3 -9 -10 -17 -15 -17 -11 0 -12 -27 -1 -33 4 -2 2 -3 -4 -1 -6 1
-16 -2 -21 -7 -6 -6 -14 0 -21 16 -7 15 -8 24 -3 21 5 -3 12 1 15 10 9 25 7
27 -11 13 -9 -8 -19 -13 -22 -11 -13 8 -11 -17 4 -31 8 -9 15 -21 15 -28 0
-17 -27 7 -43 40 -18 35 -11 52 17 45 17 -4 27 1 39 20 14 21 15 24 2 20 -8
-4 -15 -12 -15 -20 0 -16 -26 -19 -35 -4 -5 8 -11 7 -21 -1 -12 -10 -15 -10
-12 1 2 8 -2 14 -9 15 -6 0 -14 3 -18 7 -4 3 1 5 12 3 10 -2 18 -4 18 -5 0 -1
8 -3 18 -5 9 -2 17 1 17 6 0 6 4 8 9 5 5 -3 11 0 14 8 3 8 16 13 30 12 18 -2
24 1 22 13 -2 9 -4 19 -4 22 -1 4 -46 7 -102 8 -99 1 -100 1 -97 -21z m183 3
c3 -5 1 -12 -4 -15 -5 -3 -11 1 -15 9 -6 16 9 21 19 6z m-85 -11 c-8 -5 -19
-10 -25 -10 -5 0 -3 5 5 10 8 5 20 10 25 10 6 0 3 -5 -5 -10z m1365 -1 c3 -4
-6 -4 -20 -1 -16 3 -34 -2 -48 -14 -18 -16 -19 -16 -8 -1 9 12 10 17 2 17 -6
0 -14 -7 -17 -15 -4 -8 -11 -15 -16 -15 -6 0 -5 6 2 15 9 11 9 15 1 15 -6 0
-14 -7 -17 -15 -4 -8 -11 -15 -16 -15 -6 0 -5 6 2 15 9 11 9 15 1 15 -6 0 -14
-7 -17 -15 -4 -8 -11 -15 -16 -15 -6 0 -5 6 2 15 9 11 9 15 1 15 -6 0 -14 -7
-17 -15 -4 -8 -11 -15 -16 -15 -6 0 -5 6 2 15 9 11 9 15 1 15 -6 0 -14 -7 -17
-15 -4 -8 -11 -15 -16 -15 -6 0 -5 6 2 15 9 11 9 15 1 15 -6 0 -14 -7 -17 -15
-4 -8 -11 -15 -16 -15 -7 0 -6 5 1 13 6 8 9 16 6 18 -2 3 52 5 120 4 68 0 126
-3 130 -6z m358 -4 c-3 -9 -8 -14 -10 -11 -3 3 -2 9 2 15 9 16 15 13 8 -4z
m-629 -10 c-4 -8 -11 -15 -16 -15 -6 0 -5 6 2 15 7 8 14 15 16 15 2 0 1 -7 -2
-15z m587 -12 c-12 -20 -14 -14 -5 12 4 9 9 14 11 11 3 -2 0 -13 -6 -23z
m-351 7 c0 -5 -5 -10 -11 -10 -5 0 -7 5 -4 10 3 6 8 10 11 10 2 0 4 -4 4 -10z
m311 -27 c-12 -20 -14 -14 -5 12 4 9 9 14 11 11 3 -2 0 -13 -6 -23z m344 7 c3
-5 1 -10 -4 -10 -6 0 -11 5 -11 10 0 6 2 10 4 10 3 0 8 -4 11 -10z m-384 -27
c-12 -20 -14 -14 -5 12 4 9 9 14 11 11 3 -2 0 -13 -6 -23z m-1263 -9 c32 -5
22 -13 -14 -12 -21 1 -33 3 -26 6 7 2 9 9 6 14 -5 7 -2 8 7 2 8 -4 20 -9 27
-10z m46 -14 c-6 -6 -10 -3 -10 10 0 13 4 16 10 10 7 -7 7 -13 0 -20z m1177 3
c-12 -20 -14 -14 -5 12 4 9 9 14 11 11 3 -2 0 -13 -6 -23z m-1281 2 c0 -1 -12
-2 -26 -2 -17 0 -22 2 -13 7 10 7 39 3 39 -5z m134 -15 c-6 -6 -10 -3 -10 10
0 13 4 16 10 10 7 -7 7 -13 0 -20z m-261 -6 l-17 -27 24 13 c22 12 24 11 13
-2 -15 -17 -7 -29 13 -21 8 3 11 10 7 16 -3 6 -1 7 6 3 6 -4 9 -11 6 -16 -3
-5 -1 -11 5 -15 5 -3 10 2 11 12 0 16 1 16 9 -2 12 -28 12 -45 -1 -45 -6 0 -9
7 -6 14 4 10 1 13 -9 9 -13 -5 -13 -8 2 -24 13 -14 20 -16 31 -8 9 8 13 8 13
1 0 -6 -7 -15 -16 -20 -9 -5 -14 -13 -12 -18 1 -5 -9 -9 -24 -10 -26 -1 -26 0
-14 25 16 32 -2 79 -22 59 -9 -9 -12 -8 -12 5 0 11 -5 14 -16 10 -12 -4 -15 0
-12 18 1 13 10 29 18 36 22 18 22 16 3 -13z m291 -4 c-6 -6 -10 -3 -10 10 0
13 4 16 10 10 7 -7 7 -13 0 -20z m1077 3 c-12 -20 -14 -14 -5 12 4 9 9 14 11
11 3 -2 0 -13 -6 -23z m-1258 -8 c-3 -9 -8 -14 -10 -11 -3 3 -2 9 2 15 9 16
15 13 8 -4z m208 -8 c-10 -9 -11 -8 -5 6 3 10 9 15 12 12 3 -3 0 -11 -7 -18z
m65 3 c0 -12 -4 -16 -9 -11 -5 5 -6 14 -3 20 10 15 12 14 12 -9z m945 -7 c-12
-20 -14 -14 -5 12 4 9 9 14 11 11 3 -2 0 -13 -6 -23z m-915 -3 c0 -12 -4 -16
-9 -11 -5 5 -6 14 -3 20 10 15 12 14 12 -9z m-584 3 c-6 -3 -9 -10 -5 -16 4
-7 -1 -6 -10 2 -21 17 -21 17 6 18 12 0 16 -1 9 -4z m614 -13 c0 -12 -4 -16
-9 -11 -5 5 -6 14 -3 20 10 15 12 14 12 -9z m264 11 c0 -5 -7 -16 -15 -25 -9
-8 -15 -18 -15 -21 1 -4 -2 -10 -6 -13 -4 -4 -4 -1 0 6 6 11 -5 17 -26 13 -13
-2 -9 6 9 20 11 10 14 10 9 2 -4 -8 -2 -13 4 -13 7 0 14 9 17 20 5 20 23 28
23 11z m35 -11 c10 -11 14 -20 9 -20 -5 0 -15 9 -22 20 -7 11 -11 20 -9 20 2
0 12 -9 22 -20z m30 0 c10 -11 14 -20 9 -20 -5 0 -15 9 -22 20 -7 11 -11 20
-9 20 2 0 12 -9 22 -20z m30 0 c10 -11 14 -20 9 -20 -5 0 -15 9 -22 20 -7 11
-11 20 -9 20 2 0 12 -9 22 -20z m30 0 c10 -11 14 -20 9 -20 -5 0 -15 9 -22 20
-7 11 -11 20 -9 20 2 0 12 -9 22 -20z m30 0 c10 -11 14 -20 9 -20 -5 0 -15 9
-22 20 -7 11 -11 20 -9 20 2 0 12 -9 22 -20z m38 0 c4 0 5 5 2 10 -10 16 1 11
16 -7 8 -10 9 -14 2 -10 -6 4 -15 1 -20 -7 -6 -12 -11 -9 -21 12 -9 19 -9 23
0 14 7 -7 16 -12 21 -12z m273 -4 c0 -14 -5 -21 -9 -17 -4 4 -5 15 -1 24 9 24
12 21 10 -7z m30 0 c0 -14 -5 -21 -9 -17 -4 4 -5 15 -1 24 9 24 12 21 10 -7z
m30 0 c0 -14 -5 -21 -9 -17 -4 4 -5 15 -1 24 9 24 12 21 10 -7z m30 0 c0 -14
-5 -21 -9 -17 -4 4 -5 15 -1 24 9 24 12 21 10 -7z m25 -3 c-12 -20 -14 -14 -5
12 4 9 9 14 11 11 3 -2 0 -13 -6 -23z m-815 -3 c0 -12 -4 -16 -9 -11 -5 5 -6
14 -3 20 10 15 12 14 12 -9z m249 0 c3 -5 1 -10 -4 -10 -6 0 -11 5 -11 10 0 6
2 10 4 10 3 0 8 -4 11 -10z m419 -6 c3 -8 2 -12 -4 -9 -6 3 -10 10 -10 16 0
14 7 11 14 -7z m-424 -18 c0 -3 -4 -8 -10 -11 -5 -3 -10 -1 -10 4 0 6 5 11 10
11 6 0 10 -2 10 -4z m30 0 c0 -3 -4 -8 -10 -11 -5 -3 -10 -1 -10 4 0 6 5 11
10 11 6 0 10 -2 10 -4z m30 0 c0 -3 -4 -8 -10 -11 -5 -3 -10 -1 -10 4 0 6 5
11 10 11 6 0 10 -2 10 -4z m30 0 c0 -3 -4 -8 -10 -11 -5 -3 -10 -1 -10 4 0 6
5 11 10 11 6 0 10 -2 10 -4z m30 0 c0 -3 -4 -8 -10 -11 -5 -3 -10 -1 -10 4 0
6 5 11 10 11 6 0 10 -2 10 -4z m-169 -25 c4 0 10 -9 13 -18 6 -14 3 -14 -15 3
-20 17 -22 17 -16 2 8 -23 4 -23 -17 1 -16 17 -15 18 6 16 13 -1 26 -3 29 -4z
m-631 -5 c0 -3 -4 -8 -10 -11 -5 -3 -10 -1 -10 4 0 6 5 11 10 11 6 0 10 -2 10
-4z m360 -6 c0 -6 6 -8 13 -4 9 6 9 5 0 -8 -7 -8 -10 -18 -7 -21 4 -3 4 -13 0
-22 -5 -13 -8 -14 -20 -3 -16 15 -14 44 4 40 6 -1 9 2 6 7 -5 7 -41 8 -41 1 0
-1 -11 -3 -24 -6 -14 -2 -29 -9 -36 -14 -6 -5 -16 -5 -25 2 -13 8 -13 9 1 5 9
-3 23 2 31 12 16 19 98 28 98 11z m60 -11 c0 -5 -4 -9 -8 -9 -5 0 -9 7 -9 15
0 8 4 12 9 9 4 -3 8 -9 8 -15z m254 5 c5 -14 4 -15 -9 -4 -17 14 -19 20 -6 20
5 0 12 -7 15 -16z m30 0 c9 -24 2 -26 -12 -4 -7 11 -8 20 -3 20 5 0 12 -7 15
-16z m26 4 c0 -9 3 -8 10 2 5 8 12 12 15 9 3 -4 -1 -11 -8 -18 -11 -9 -17 -8
-27 4 -9 10 -9 15 -1 15 6 0 11 -6 11 -12z m-787 -13 c-3 -9 -8 -14 -10 -11
-3 3 -2 9 2 15 9 16 15 13 8 -4z m160 -34 c-6 -9 -16 -16 -24 -16 -18 0 -24
32 -9 50 18 21 48 -10 33 -34z m398 26 c-10 -9 -11 -8 -5 6 3 10 9 15 12 12 3
-3 0 -11 -7 -18z m845 11 c5 -7 3 -8 -6 -3 -9 6 -12 4 -8 -6 4 -10 -1 -15 -13
-16 -23 -2 -24 1 -3 21 18 19 21 19 30 4z m357 -23 c-3 -9 -8 -14 -10 -11 -3
3 -2 9 2 15 9 16 15 13 8 -4z m-1750 -10 c-3 -9 -8 -14 -10 -11 -3 3 -2 9 2
15 9 16 15 13 8 -4z m187 -22 c0 -7 -6 -13 -14 -13 -8 0 -16 -5 -18 -12 -3 -8
-9 -8 -24 1 -11 7 -12 10 -3 8 10 -3 20 6 28 25 10 22 16 27 22 17 5 -8 9 -20
9 -26z m77 -8 c1 -19 -2 -35 -6 -35 -9 0 -33 20 -50 43 -12 15 -12 17 2 11 8
-3 18 -12 21 -20 3 -8 11 -14 17 -14 8 0 8 4 0 13 -8 10 -7 17 1 25 7 7 12 12
13 12 0 0 1 -16 2 -35z m183 21 c0 -3 -4 -8 -10 -11 -5 -3 -10 -1 -10 4 0 6 5
11 10 11 6 0 10 -2 10 -4z m523 -11 c-3 -9 -8 -14 -10 -11 -3 3 -2 9 2 15 9
16 15 13 8 -4z m30 0 c-3 -9 -8 -14 -10 -11 -3 3 -2 9 2 15 9 16 15 13 8 -4z
m30 0 c-3 -9 -8 -14 -10 -11 -3 3 -2 9 2 15 9 16 15 13 8 -4z m328 -2 c13 -16
12 -17 -3 -4 -10 7 -18 15 -18 17 0 8 8 3 21 -13z m-1072 -20 c0 -25 -1 -25
-8 -8 -5 11 -7 23 -4 28 8 14 13 7 12 -20z m34 -14 c-7 -25 -15 -18 -19 16 -2
21 0 24 11 15 7 -6 11 -20 8 -31z m168 30 c15 -8 25 -7 37 3 15 12 16 11 3 -4
-7 -10 -10 -18 -6 -18 5 0 18 8 29 18 20 16 20 16 7 0 -7 -10 -10 -18 -6 -18
5 0 18 8 29 18 20 16 20 16 7 0 -7 -10 -10 -18 -6 -18 5 0 18 8 29 18 20 16
20 16 7 0 -7 -10 -10 -18 -6 -18 5 0 18 8 29 18 20 16 20 16 7 0 -16 -22 -4
-24 19 -3 14 13 16 12 17 -8 0 -12 -1 -16 -4 -9 -3 6 -9 10 -13 7 -5 -3 -6
-13 -3 -23 6 -16 6 -16 -11 1 -10 9 -23 14 -29 10 -8 -5 -6 -9 6 -11 9 -2 17
-11 17 -20 -1 -13 -6 -11 -24 10 -27 30 -41 27 -25 -6 9 -19 9 -20 -4 -3 -9
11 -22 15 -33 11 -14 -4 -15 -3 -6 4 11 7 11 10 -2 15 -8 3 -18 2 -21 -3 -9
-15 -27 -12 -19 3 5 9 4 9 -6 1 -18 -18 -3 -57 20 -51 13 3 17 0 13 -9 -6 -16
-19 -18 -28 -4 -3 5 -12 7 -20 3 -10 -3 -15 1 -15 12 0 9 4 14 9 11 5 -4 7 3
4 14 -3 11 -12 20 -19 20 -8 0 -14 5 -14 11 0 5 -6 7 -12 3 -9 -5 -9 -2 1 9
16 20 16 20 42 6z m346 4 c-4 -3 -2 -12 4 -20 7 -8 8 -13 1 -13 -12 0 -23 26
-15 34 4 3 9 6 11 6 3 0 2 -3 -1 -7z m983 3 c0 -3 -4 -8 -10 -11 -5 -3 -10 -1
-10 4 0 6 5 11 10 11 6 0 10 -2 10 -4z m-1609 -23 c0 -5 3 -21 5 -38 3 -16 2
-26 -3 -21 -4 4 -9 12 -9 17 -1 5 -2 14 -3 19 0 6 -4 9 -8 9 -20 -3 -26 2 -13
11 18 12 30 13 31 3z m144 -3 c3 -5 1 -10 -4 -10 -6 0 -11 5 -11 10 0 6 2 10
4 10 3 0 8 -4 11 -10z m59 -7 c-3 9 -1 17 5 17 6 0 10 -3 10 -7 -3 -19 2 -33
12 -33 5 0 7 5 4 10 -7 12 -3 12 19 4 24 -9 19 -23 -6 -22 -36 1 -88 18 -88
29 0 6 5 7 10 4 6 -3 10 -1 10 6 0 7 7 4 15 -7 13 -16 14 -16 9 -1z m306 7 c0
-5 -2 -10 -4 -10 -3 0 -8 5 -11 10 -3 6 -1 10 4 10 6 0 11 -4 11 -10z m30 0
c0 -5 -2 -10 -4 -10 -3 0 -8 5 -11 10 -3 6 -1 10 4 10 6 0 11 -4 11 -10z m30
0 c0 -5 -2 -10 -4 -10 -3 0 -8 5 -11 10 -3 6 -1 10 4 10 6 0 11 -4 11 -10z
m30 0 c0 -5 -2 -10 -4 -10 -3 0 -8 5 -11 10 -3 6 -1 10 4 10 6 0 11 -4 11 -10z
m500 0 c0 -5 -2 -10 -4 -10 -3 0 -8 5 -11 10 -3 6 -1 10 4 10 6 0 11 -4 11
-10z m-1206 -30 c6 0 12 -12 13 -27 1 -24 1 -25 -7 -8 -5 11 -9 16 -10 10 -2
-14 -19 27 -18 45 0 10 2 9 5 -2 2 -10 10 -18 17 -18z m1631 21 c3 -5 2 -12
-3 -15 -5 -3 -9 1 -9 9 0 17 3 19 12 6z m-1898 -43 c-15 -9 -19 -4 -11 16 5
14 9 15 15 5 5 -8 3 -17 -4 -21z m327 15 c3 -8 10 -11 16 -8 15 9 12 -4 -5
-21 -12 -13 -17 -13 -27 -2 -7 7 -13 20 -14 29 -1 19 23 21 30 2z m104 -28
c11 -28 11 -28 -3 -11 -11 14 -15 16 -15 5 0 -12 -2 -12 -9 0 -10 15 -2 57 8
44 4 -4 13 -21 19 -38z m-224 19 c8 -21 8 -24 -5 -24 -5 0 -7 5 -4 10 3 6 1
10 -4 10 -6 0 -11 5 -11 10 0 16 17 12 24 -6z m331 -26 c6 -5 -3 -4 -18 1 -36
14 -40 14 -32 -1 4 -7 0 -5 -8 5 -15 18 -32 24 -22 7 3 -5 4 -10 1 -10 -3 0
-10 9 -16 19 -10 19 -9 19 37 4 27 -9 53 -20 58 -25z m305 22 c0 -5 -2 -10 -4
-10 -3 0 -8 5 -11 10 -3 6 -1 10 4 10 6 0 11 -4 11 -10z m30 0 c0 -5 -5 -10
-11 -10 -5 0 -7 5 -4 10 3 6 8 10 11 10 2 0 4 -4 4 -10z m24 -14 c-3 -9 -10
-16 -15 -16 -5 0 -4 9 3 20 14 22 21 20 12 -4z m-621 -41 c4 -8 3 -16 -1 -19
-4 -3 -9 4 -9 15 -2 23 3 25 10 4z m142 -5 c-3 -5 -12 -10 -18 -10 -7 0 -6 4
3 10 19 12 23 12 15 0z m43 -2 c8 -8 12 -9 12 -1 0 12 26 12 35 0 3 -4 2 -5
-1 -2 -4 2 -14 0 -23 -4 -11 -6 -23 -4 -36 5 -10 8 -14 14 -9 14 6 0 15 -5 22
-12z m92 -1 c0 -1 -28 -29 -62 -62 l-62 -60 55 62 c46 52 69 73 69 60z m474
-11 c-10 -8 -21 -12 -24 -10 -5 6 21 24 34 24 6 0 1 -6 -10 -14z m-700 -4 c3
-5 -1 -9 -9 -9 -8 0 -12 4 -9 9 3 4 7 8 9 8 2 0 6 -4 9 -8z m486 5 c0 -2 -9
-14 -20 -27 -13 -15 -20 -18 -20 -9 0 11 -2 11 -10 -1 -8 -13 -10 -12 -10 4 0
12 5 16 14 13 8 -3 20 1 26 9 12 13 20 18 20 11z m121 -29 c8 -15 8 -19 0 -14
-15 10 -14 -4 4 -38 l16 -30 -21 19 c-15 14 -20 27 -16 46 3 14 0 32 -7 39 -9
10 -9 11 0 6 7 -4 18 -16 24 -28z m44 2 c-9 -16 -17 -30 -19 -30 -3 0 1 14 7
30 6 17 15 30 19 30 5 0 2 -13 -7 -30z m103 5 c-6 -14 -13 -23 -15 -21 -5 5
15 46 22 46 3 0 -1 -11 -7 -25z m32 5 c-6 -11 -13 -20 -16 -20 -2 0 0 9 6 20
6 11 13 20 16 20 2 0 0 -9 -6 -20z m30 0 c-6 -11 -13 -20 -16 -20 -2 0 0 9 6
20 6 11 13 20 16 20 2 0 0 -9 -6 -20z m-685 0 c3 -4 -3 -14 -13 -21 -15 -13
-16 -12 -3 4 21 26 -2 20 -29 -8 -13 -14 -28 -25 -34 -25 -6 0 -4 5 4 10 8 5
11 10 5 10 -5 1 1 6 15 11 18 8 21 12 11 18 -9 6 -5 9 13 9 15 0 28 -4 31 -8z
m168 -5 c-3 -9 -8 -14 -10 -11 -3 3 -2 9 2 15 9 16 15 13 8 -4z m42 -3 c-3 -3
-11 0 -18 7 -9 10 -8 11 6 5 10 -3 15 -9 12 -12z m995 4 c0 -3 -4 -8 -10 -11
-5 -3 -10 -1 -10 4 0 6 5 11 10 11 6 0 10 -2 10 -4z m-1056 -32 c3 -8 2 -12
-4 -9 -6 3 -10 10 -10 16 0 14 7 11 14 -7z m50 -8 c-3 -9 -10 -13 -15 -10 -5
3 -3 11 4 19 15 16 19 13 11 -9z m361 4 c3 -5 1 -10 -4 -10 -6 0 -11 5 -11 10
0 6 2 10 4 10 3 0 8 -4 11 -10z m66 -17 c-12 -20 -14 -14 -5 12 4 9 9 14 11
11 3 -2 0 -13 -6 -23z m738 15 c7 11 9 10 14 -3 4 -9 3 -13 -3 -10 -6 3 -10 1
-10 -6 0 -8 -5 -7 -17 2 -15 12 -16 12 -10 -4 4 -11 3 -16 -3 -12 -6 3 -10 1
-10 -5 0 -6 -5 -8 -10 -5 -6 4 -4 12 5 21 8 9 15 21 15 27 0 7 4 6 10 -3 8
-12 12 -13 19 -2z m-858 -25 c13 -16 12 -17 -3 -4 -10 7 -18 15 -18 17 0 8 8
3 21 -13z m-131 3 c0 -3 -4 -8 -10 -11 -5 -3 -10 -1 -10 4 0 6 5 11 10 11 6 0
10 -2 10 -4z m1118 -39 c-5 -10 -7 -28 -4 -40 4 -18 3 -19 -10 -5 -13 13 -14
20 -4 37 9 17 8 26 -2 38 -12 15 -11 15 9 3 17 -11 20 -18 11 -33z m-1528 19
c0 -2 -8 -10 -17 -17 -16 -13 -17 -12 -4 4 13 16 21 21 21 13z m1441 -9 c-6
-8 -8 -17 -4 -20 3 -4 1 -7 -5 -7 -14 0 -14 2 -6 24 3 9 11 16 16 16 7 0 6 -5
-1 -13z m52 5 c4 9 6 8 6 -3 1 -8 -5 -24 -13 -34 -10 -15 -11 -25 -4 -40 10
-19 10 -19 -8 -3 -14 14 -15 21 -6 30 15 15 16 38 2 38 -5 0 -10 -6 -10 -14 0
-8 -4 -17 -10 -21 -5 -3 -5 7 1 25 9 23 14 28 24 20 10 -8 14 -7 18 2z m72
-20 c0 -19 -5 -29 -17 -29 -14 -1 -15 3 -6 28 13 37 23 37 23 1z m-489 -6 c-1
-18 -4 -22 -13 -14 -6 5 -9 16 -6 24 8 23 21 16 19 -10z m34 9 c11 -13 10 -14
-4 -9 -9 3 -16 10 -16 15 0 13 6 11 20 -6z m-1150 1 c0 -2 -8 -10 -17 -17 -16
-13 -17 -12 -4 4 13 16 21 21 21 13z m63 -19 c-5 -8 -8 -7 -11 1 -2 7 -9 9
-14 6 -7 -4 -8 -2 -4 4 4 6 13 9 21 6 8 -4 12 -11 8 -17z m435 3 c-7 -10 -14
-18 -15 -16 -6 6 9 36 18 36 5 0 4 -9 -3 -20z m952 16 c0 -3 -4 -8 -10 -11 -5
-3 -10 -1 -10 4 0 6 5 11 10 11 6 0 10 -2 10 -4z m-917 -23 c-7 -3 -13 -12
-14 -21 0 -11 -2 -13 -6 -4 -6 15 17 46 26 36 3 -4 0 -9 -6 -11z m-573 3 c0
-2 -8 -10 -17 -17 -16 -13 -17 -12 -4 4 13 16 21 21 21 13z m70 -11 c0 -2 -9
-3 -19 -2 -11 0 -18 5 -15 9 4 6 34 0 34 -7z m440 11 c0 -3 -4 -8 -10 -11 -5
-3 -10 -1 -10 4 0 6 5 11 10 11 6 0 10 -2 10 -4z m1005 -36 c-4 -6 -1 -18 7
-27 11 -14 11 -16 -1 -8 -11 6 -13 4 -7 -10 6 -16 4 -16 -10 -4 -10 8 -12 15
-5 17 6 2 9 8 5 13 -5 9 3 29 12 29 3 0 2 -5 -1 -10z m-1820 -20 c3 -5 1 -10
-4 -10 -6 0 -11 5 -11 10 0 6 2 10 4 10 3 0 8 -4 11 -10z m1744 -13 c13 4 14
3 2 -5 -13 -9 -13 -13 0 -28 12 -15 12 -17 0 -9 -11 6 -13 4 -9 -7 5 -11 0
-14 -19 -12 -16 2 -23 -2 -20 -10 4 -9 -3 -12 -19 -10 -19 2 -24 -2 -20 -14 3
-10 -4 -33 -14 -52 -23 -42 -27 -32 -4 12 13 25 14 32 2 39 -11 8 -11 10 0 18
11 6 8 14 -15 36 -22 22 -23 25 -4 12 13 -8 31 -13 40 -10 11 3 12 2 4 -4 -7
-5 -9 -14 -5 -20 5 -8 11 -7 20 3 10 11 7 18 -15 40 -24 22 -24 24 -4 11 13
-8 31 -13 40 -10 14 4 14 3 1 -6 -10 -7 -11 -13 -5 -20 6 -6 14 -4 23 4 10 12
7 19 -15 41 -24 22 -24 24 -4 11 13 -8 31 -13 40 -10z m40 13 c-10 -7 -10 -12
2 -26 12 -15 12 -17 0 -9 -11 6 -13 4 -7 -10 5 -15 4 -16 -9 -5 -11 9 -13 15
-5 20 8 5 7 12 -4 22 -13 14 -12 16 11 16 16 0 21 -3 12 -8z m72 -7 c13 -16
12 -17 -3 -4 -17 13 -22 21 -14 21 2 0 10 -8 17 -17z m-1164 -25 c-3 -7 -5 -2
-5 12 0 14 2 19 5 13 2 -7 2 -19 0 -25z m627 17 c-4 -8 -11 -15 -16 -15 -6 0
-5 6 2 15 7 8 14 15 16 15 2 0 1 -7 -2 -15z m-1071 -18 c-5 -8 -8 -7 -11 1 -2
7 -9 9 -14 6 -7 -4 -8 -2 -4 4 4 6 13 9 21 6 8 -4 12 -11 8 -17z m613 11 c5
-7 3 -8 -6 -3 -10 6 -12 4 -7 -9 4 -10 3 -15 -3 -11 -13 8 -13 35 -1 35 6 0
13 -5 17 -12z m-865 -30 l21 -33 -6 35 c-4 25 -3 31 4 20 6 -10 10 -11 10 -2
0 6 5 12 11 12 6 0 9 -6 6 -14 -3 -8 -1 -17 6 -20 9 -5 9 -7 0 -12 -7 -3 -13
-10 -13 -15 0 -6 5 -7 12 -3 8 5 9 2 5 -9 -3 -10 -2 -17 3 -17 18 0 10 -22
-10 -27 -15 -4 -19 -11 -15 -32 5 -21 4 -22 -3 -6 -5 11 -8 34 -7 52 1 18 -1
30 -5 28 -4 -2 -15 11 -26 30 -10 18 -22 31 -27 28 -6 -3 -7 -1 -3 5 11 17 14
15 37 -20z m1882 7 c-3 -9 -8 -14 -10 -11 -3 3 -2 9 2 15 9 16 15 13 8 -4z
m-1663 1 c0 -3 -4 -8 -10 -11 -5 -3 -10 -1 -10 4 0 6 5 11 10 11 6 0 10 -2 10
-4z m1404 -32 c6 2 8 1 4 -1 -5 -3 -3 -13 2 -24 8 -14 6 -28 -9 -56 -11 -21
-20 -34 -21 -30 0 4 7 21 15 37 14 26 14 29 0 24 -8 -4 -15 -2 -15 4 0 6 5 12
12 14 6 2 -1 16 -18 32 -22 22 -23 25 -5 13 13 -8 28 -14 35 -13z m257 -40
c-16 -33 -30 -56 -31 -52 0 11 53 118 58 114 2 -2 -10 -30 -27 -62z m35 9
c-14 -26 -25 -45 -26 -41 0 12 43 98 48 94 2 -2 -8 -26 -22 -53z m-1831 37 c3
-5 1 -10 -4 -10 -6 0 -11 5 -11 10 0 6 2 10 4 10 3 0 8 -4 11 -10z m21 -6 c-5
-12 -2 -15 10 -10 12 4 15 2 10 -9 -3 -8 -1 -15 4 -15 6 0 10 -6 10 -14 0 -8
8 -17 17 -20 15 -6 15 -8 3 -17 -12 -7 -10 -8 7 -6 12 2 26 6 29 10 11 10 24
8 24 -4 0 -5 -4 -7 -10 -4 -5 3 -10 -2 -10 -11 0 -10 -7 -26 -17 -36 -9 -10
-12 -18 -6 -18 14 0 44 35 36 43 -3 4 -1 7 5 7 16 0 15 -12 -3 -36 -24 -32
-17 -39 13 -11 33 32 38 33 46 11 5 -14 4 -15 -8 -5 -17 14 -25 4 -30 -40 -2
-17 -10 -36 -18 -40 -8 -4 -23 -27 -33 -49 -16 -36 -17 -43 -4 -52 11 -8 11
-9 -3 -4 -11 3 -18 0 -18 -8 0 -7 -9 -21 -20 -31 -19 -17 -20 -17 -20 0 0 14
-3 15 -15 5 -12 -10 -14 -8 -10 9 6 30 -2 26 -25 -11 -17 -29 -20 -30 -20 -11
0 12 5 25 10 28 6 4 8 11 4 16 -3 5 -3 23 1 39 6 28 10 30 49 30 33 0 48 6 68
28 23 23 25 29 13 45 -7 10 -19 16 -26 15 -8 -2 -13 4 -11 12 1 10 -3 9 -14
-5 -10 -12 -14 -14 -12 -5 3 8 -4 23 -15 32 -11 10 -17 24 -13 34 4 10 2 14
-6 12 -7 -3 -19 2 -27 10 -13 13 -11 18 14 39 17 13 22 21 13 17 -21 -7 -22
-1 -6 26 15 24 22 26 14 4z m1154 6 c0 -5 -5 -10 -11 -10 -5 0 -7 5 -4 10 3 6
8 10 11 10 2 0 4 -4 4 -10z m324 -26 c6 2 8 1 4 -1 -5 -3 -3 -13 3 -24 7 -13
7 -24 -1 -37 -10 -15 -11 -15 -6 0 4 12 1 15 -11 11 -12 -5 -14 -1 -8 16 5 16
0 27 -17 42 l-23 21 24 -15 c13 -9 28 -14 35 -13z m267 -21 c-11 -21 -20 -35
-21 -31 0 12 33 78 38 74 2 -2 -6 -21 -17 -43z m-1691 33 c0 -3 -4 -8 -10 -11
-5 -3 -10 -1 -10 4 0 6 5 11 10 11 6 0 10 -2 10 -4z m670 -22 c0 -2 -9 0 -20
6 -11 6 -20 13 -20 16 0 2 9 0 20 -6 11 -6 20 -13 20 -16z m-850 -4 c6 -11 8
-20 6 -20 -3 0 -10 9 -16 20 -6 11 -8 20 -6 20 3 0 10 -9 16 -20z m840 -17 c0
-7 -39 17 -46 28 -3 6 5 3 20 -6 14 -10 26 -19 26 -22z m698 -6 c-5 -10 -8
-27 -5 -36 3 -11 -2 -17 -14 -17 -16 0 -16 3 -3 35 11 27 12 37 2 49 -12 13
-10 14 9 2 17 -11 20 -18 11 -33z m293 -4 c-11 -21 -20 -35 -21 -31 0 12 33
78 38 74 2 -2 -6 -21 -17 -43z m-1631 33 c0 -2 -8 -10 -17 -17 -16 -13 -17
-12 -4 4 13 16 21 21 21 13z m465 -8 c5 4 5 1 1 -6 -6 -10 -11 -10 -22 -1 -8
6 -14 14 -14 16 0 3 6 0 13 -6 8 -6 18 -7 22 -3z m786 -11 c-6 -8 -8 -17 -4
-20 3 -4 1 -7 -5 -7 -14 0 -14 2 -6 24 3 9 11 16 16 16 7 0 6 -5 -1 -13z m53
5 c3 7 3 2 0 -12 -4 -14 -7 -37 -8 -52 -1 -24 -3 -25 -16 -13 -11 12 -11 18
-2 27 7 7 12 18 12 25 0 24 -15 13 -32 -24 -14 -29 -15 -40 -5 -52 10 -12 9
-13 -2 -6 -11 6 -13 4 -7 -10 5 -15 4 -16 -9 -5 -9 7 -12 16 -8 19 4 3 8 11 9
16 0 6 9 29 19 52 14 32 21 40 31 33 8 -8 14 -7 18 2z m72 -20 c1 -20 -4 -28
-18 -29 -21 -2 -21 -1 -6 32 15 33 23 32 24 -3z m130 -9 c-8 -15 -15 -25 -16
-21 0 12 23 58 27 54 3 -2 -2 -17 -11 -33z m30 0 c-8 -15 -15 -25 -16 -21 0
12 23 58 27 54 3 -2 -2 -17 -11 -33z m30 0 c-8 -15 -15 -25 -16 -21 0 12 23
58 27 54 3 -2 -2 -17 -11 -33z m30 0 c-8 -15 -15 -25 -16 -21 0 12 23 58 27
54 3 -2 -2 -17 -11 -33z m-1583 7 c-3 -11 -9 -17 -15 -14 -5 3 -4 12 3 20 16
19 18 18 12 -6z m277 16 c0 -3 -4 -8 -10 -11 -5 -3 -10 -1 -10 4 0 6 5 11 10
11 6 0 10 -2 10 -4z m340 -22 c0 -2 -9 0 -20 6 -11 6 -20 13 -20 16 0 2 9 0
20 -6 11 -6 20 -13 20 -16z m581 3 c-6 -8 -8 -17 -4 -20 3 -4 1 -7 -5 -7 -14
0 -14 2 -6 24 3 9 11 16 16 16 7 0 6 -5 -1 -13z m-1386 -29 c4 -18 16 -50 26
-71 17 -32 23 -36 44 -31 15 4 25 2 25 -5 0 -6 -6 -11 -13 -11 -8 0 -21 -8
-30 -18 -12 -13 -32 -19 -69 -19 l-53 -1 45 7 45 6 -43 19 c-43 19 -49 30 -32
56 7 11 11 9 19 -13 6 -15 13 -27 16 -27 2 0 0 12 -5 26 -13 33 -13 67 0 59 6
-3 10 -1 10 4 0 6 -4 11 -9 11 -5 0 -7 9 -4 20 8 30 20 24 28 -12z m1355 18
c0 -3 -4 -8 -10 -11 -5 -3 -10 -1 -10 4 0 6 5 11 10 11 6 0 10 -2 10 -4z m41
-29 c-10 -9 -11 -8 -5 6 3 10 9 15 12 12 3 -3 0 -11 -7 -18z m-1331 -74 c0 -7
-4 -13 -10 -13 -5 0 -6 7 -3 17 4 11 3 14 -5 9 -8 -5 -10 -1 -5 10 4 12 3 15
-5 10 -8 -5 -10 -2 -5 10 5 14 8 13 19 -7 7 -13 13 -30 14 -36z m1279 34 c13
4 14 3 2 -5 -13 -9 -13 -13 0 -28 12 -15 12 -17 0 -9 -11 6 -13 4 -9 -7 5 -11
0 -14 -19 -12 -16 2 -23 -2 -20 -10 4 -9 -3 -12 -19 -10 -19 2 -24 -2 -20 -14
3 -10 -4 -33 -14 -52 -23 -42 -27 -32 -4 12 12 24 13 32 3 38 -9 6 -8 12 4 25
10 9 15 21 12 26 -4 5 -1 9 6 9 7 0 5 8 -7 21 -19 22 -19 22 4 8 12 -8 20 -20
17 -26 -20 -51 -20 -49 -1 -30 10 9 21 15 24 13 4 -2 13 2 20 10 10 11 7 18
-15 40 -24 22 -24 24 -4 11 13 -8 31 -13 40 -10z m40 13 c-10 -7 -10 -12 2
-26 12 -15 12 -17 0 -9 -11 6 -13 4 -7 -10 5 -15 4 -16 -9 -5 -11 9 -13 15 -5
20 8 5 7 12 -4 22 -13 14 -12 16 11 16 16 0 21 -3 12 -8z m72 -7 c13 -16 12
-17 -3 -4 -17 13 -22 21 -14 21 2 0 10 -8 17 -17z m-1078 -8 c-3 -9 -8 -14
-10 -11 -3 3 -2 9 2 15 9 16 15 13 8 -4z m33 -5 c0 -11 -4 -20 -8 -20 -10 0
-11 24 -1 33 9 9 9 10 9 -13z m-76 -25 c0 -5 -5 -3 -10 5 -5 8 -10 20 -10 25
0 6 5 3 10 -5 5 -8 10 -19 10 -25z m-40 15 c0 -5 -5 -10 -11 -10 -5 0 -7 5 -4
10 3 6 8 10 11 10 2 0 4 -4 4 -10z m944 -40 c-4 -8 -7 -26 -8 -40 -2 -14 -7
-34 -13 -45 -8 -14 -8 -26 -1 -40 10 -19 9 -19 -7 -4 -16 15 -16 19 -1 47 13
25 13 30 2 26 -7 -3 -18 -15 -24 -27 -6 -12 -11 -17 -11 -11 -1 6 10 27 23 47
13 19 22 38 18 41 -3 3 1 6 8 6 9 0 7 7 -6 21 -19 22 -19 22 4 8 14 -9 20 -20
16 -29z m-1088 -7 c-10 -10 -19 5 -10 18 6 11 8 11 12 0 2 -7 1 -15 -2 -18z
m35 10 c8 -9 9 -14 3 -10 -7 4 -14 -2 -17 -13 -3 -11 -10 -20 -16 -20 -16 0
-14 15 4 30 8 7 12 16 9 21 -9 16 3 10 17 -8z m212 2 c-3 -9 -8 -14 -10 -11
-3 3 -2 9 2 15 9 16 15 13 8 -4z m804 -19 c-2 -5 -9 -11 -15 -12 -8 -2 -8 0
-2 3 7 3 5 12 -7 25 -18 20 -18 21 5 7 12 -8 21 -18 19 -23z m274 -32 c-16
-33 -30 -56 -31 -52 0 11 53 118 58 114 2 -2 -10 -30 -27 -62z m30 0 c-16 -33
-30 -56 -31 -52 0 11 53 118 58 114 2 -2 -10 -30 -27 -62z m30 0 c-16 -33 -30
-56 -31 -52 0 11 53 118 58 114 2 -2 -10 -30 -27 -62z m30 0 c-16 -33 -30 -56
-31 -52 0 11 53 118 58 114 2 -2 -10 -30 -27 -62z m30 0 c-16 -33 -30 -56 -31
-52 0 11 53 118 58 114 2 -2 -10 -30 -27 -62z m30 0 c-16 -33 -30 -56 -31 -52
0 11 53 118 58 114 2 -2 -10 -30 -27 -62z m30 0 c-16 -33 -30 -56 -31 -52 0
11 53 118 58 114 2 -2 -10 -30 -27 -62z m30 0 c-16 -33 -30 -56 -31 -52 0 11
53 118 58 114 2 -2 -10 -30 -27 -62z m30 0 c-16 -33 -30 -56 -31 -52 0 11 53
118 58 114 2 -2 -10 -30 -27 -62z m35 9 c-14 -26 -25 -45 -26 -41 0 12 43 98
48 94 2 -2 -8 -26 -22 -53z m25 -9 c-16 -33 -30 -56 -31 -52 0 11 53 118 58
114 2 -2 -10 -30 -27 -62z m35 9 c-14 -26 -25 -45 -26 -41 0 12 43 98 48 94 2
-2 -8 -26 -22 -53z m-1116 33 c-4 -4 -16 -4 -26 2 -16 9 -14 10 8 9 15 -1 23
-6 18 -11z m-424 -8 c4 -6 3 -8 -4 -4 -6 3 -27 -13 -48 -36 -38 -44 -38 -38 0
19 22 34 40 41 52 21z m892 -14 c3 -2 -39 -74 -43 -74 -2 0 2 14 8 30 6 17 16
30 21 30 5 0 1 10 -10 22 -19 22 -19 23 1 8 11 -8 21 -15 23 -16z m278 -31
c-14 -26 -25 -45 -26 -41 0 12 43 98 48 94 2 -2 -8 -26 -22 -53z m-833 32 c-3
-9 -8 -14 -10 -11 -3 3 -2 9 2 15 9 16 15 13 8 -4z m215 -20 c-3 -3 -9 2 -12
12 -6 14 -5 15 5 6 7 -7 10 -15 7 -18z m300 -1 c2 -1 -7 -18 -19 -38 -19 -33
-24 -36 -36 -23 -13 13 -13 18 1 43 14 27 15 27 16 7 0 -13 -4 -23 -10 -23 -5
0 -7 -7 -3 -16 4 -12 9 -8 20 16 11 26 11 36 1 49 -12 14 -11 15 7 1 11 -8 21
-15 23 -16z m283 -21 c-11 -21 -20 -35 -21 -31 0 12 33 78 38 74 2 -2 -6 -21
-17 -43z m-601 23 c0 -2 -8 -10 -17 -17 -16 -13 -17 -12 -4 4 13 16 21 21 21
13z m212 -25 c-9 -16 -18 -28 -20 -27 -5 6 21 56 29 56 5 0 0 -13 -9 -29z m40
11 c-7 -2 -12 -12 -12 -23 0 -10 -4 -19 -10 -19 -13 0 -13 3 1 34 7 14 17 22
22 19 8 -5 7 -8 -1 -11z m112 -12 c-10 -16 -20 -28 -22 -26 -4 5 28 56 35 56
2 0 -4 -13 -13 -30z m112 -7 c-8 -15 -15 -25 -16 -21 0 12 23 58 27 54 3 -2
-2 -17 -11 -33z m30 0 c-8 -15 -15 -25 -16 -21 0 12 23 58 27 54 3 -2 -2 -17
-11 -33z m30 0 c-8 -15 -15 -25 -16 -21 0 12 23 58 27 54 3 -2 -2 -17 -11 -33z
m30 0 c-8 -15 -15 -25 -16 -21 0 12 23 58 27 54 3 -2 -2 -17 -11 -33z m-388
-3 c-7 -10 -14 -18 -15 -16 -6 6 9 36 18 36 5 0 4 -9 -3 -20z m-656 -13 c-7
-8 -8 -18 -4 -22 4 -5 1 -5 -6 -1 -9 5 -9 12 -1 27 6 12 13 18 16 15 3 -3 1
-12 -5 -19z m628 9 c0 -3 -4 -8 -10 -11 -5 -3 -10 -1 -10 4 0 6 5 11 10 11 6
0 10 -2 10 -4z m-939 -53 c-12 -20 -14 -14 -5 12 4 9 9 14 11 11 3 -2 0 -13
-6 -23z m1152 2 c23 -32 17 -32 -13 0 -13 14 -19 25 -14 25 5 0 17 -12 27 -25z
m30 0 c23 -32 17 -32 -13 0 -13 14 -19 25 -14 25 5 0 17 -12 27 -25z m-1155
-15 c-7 -10 -14 -17 -17 -15 -4 4 18 35 25 35 2 0 -1 -9 -8 -20z m879 8 c-2
-7 5 -24 17 -38 11 -14 17 -22 12 -17 -5 4 -18 -1 -28 -10 -18 -16 -18 -16
-12 0 3 9 10 17 16 17 5 0 6 5 3 11 -4 6 -13 8 -21 5 -11 -4 -11 0 -2 19 11
26 23 35 15 13z m51 -11 l22 -23 -23 -1 c-15 -2 -18 0 -8 6 9 6 10 11 2 15 -6
4 -15 4 -21 1 -6 -3 -7 1 -4 9 8 20 6 20 32 -7z m152 -2 c13 -14 21 -25 18
-25 -2 0 -15 11 -28 25 -13 14 -21 25 -18 25 2 0 15 -11 28 -25z m50 -32 c0
-7 -5 -13 -11 -13 -5 0 -7 5 -4 11 4 6 -4 23 -16 37 l-24 27 28 -24 c15 -14
27 -30 27 -38z m-818 -11 l-17 -42 -58 0 c-76 0 -74 24 1 28 45 3 54 7 69 32
24 41 26 32 5 -18z m730 -40 c-11 -22 -18 -43 -14 -46 3 -4 19 17 34 46 15 29
27 46 27 38 0 -8 -6 -24 -14 -34 -8 -10 -12 -23 -8 -29 3 -5 14 5 24 24 10 19
18 30 18 24 0 -15 -38 -82 -39 -67 0 20 -18 14 -25 -9 -6 -17 -9 -19 -16 -8
-8 12 -11 12 -19 -1 -17 -26 -11 -1 10 39 l19 39 -21 29 -22 28 27 -24 c33
-30 36 -17 5 18 -22 26 -22 26 6 -1 l29 -26 -21 -40z m19 71 c13 -16 12 -17
-3 -4 -10 7 -18 15 -18 17 0 8 8 3 21 -13z m-831 -13 c0 -5 -5 -10 -11 -10 -5
0 -7 5 -4 10 3 6 8 10 11 10 2 0 4 -4 4 -10z m781 -52 c-11 -11 -13 -10 -6 0
4 8 -2 24 -16 40 l-23 27 29 -27 c24 -23 27 -30 16 -40z m160 45 c13 -16 12
-17 -3 -4 -17 13 -22 21 -14 21 2 0 10 -8 17 -17z m-1138 -8 c-3 -9 -8 -14
-10 -11 -3 3 -2 9 2 15 9 16 15 13 8 -4z m347 7 c0 -5 -7 -17 -15 -28 -14 -18
-14 -17 -4 9 12 27 19 34 19 19z m29 -13 c-10 -6 -10 -9 -2 -9 7 0 17 8 22 18
12 19 14 12 5 -12 -7 -18 -30 -21 -39 -6 -9 14 4 32 17 24 6 -4 5 -10 -3 -15z
m52 -2 c-10 -9 -11 -8 -5 6 3 10 9 15 12 12 3 -3 0 -11 -7 -18z m383 15 c2 -4
-4 -8 -14 -8 -10 0 -16 4 -14 8 3 4 9 8 14 8 5 0 11 -4 14 -8z m107 -19 c13
-16 12 -17 -3 -4 -10 7 -18 15 -18 17 0 8 8 3 21 -13z m30 0 c13 -16 12 -17
-3 -4 -10 7 -18 15 -18 17 0 8 8 3 21 -13z m183 -26 c-5 -13 -10 -15 -19 -7
-10 8 -15 6 -20 -10 -4 -12 -9 -19 -11 -17 -3 2 1 16 7 31 10 21 15 24 27 13
13 -10 14 -9 2 13 -11 23 -11 24 4 9 10 -9 14 -22 10 -32z m-1112 11 c-7 -7
-12 -8 -12 -2 0 14 12 26 19 19 2 -3 -1 -11 -7 -17z m752 14 c2 -4 -4 -8 -14
-8 -10 0 -16 4 -14 8 3 4 9 8 14 8 5 0 11 -4 14 -8z m-471 -22 c-3 -12 -8 -19
-11 -16 -5 6 5 36 12 36 2 0 2 -9 -1 -20z m517 16 c0 -2 -7 -9 -15 -16 -13
-11 -14 -10 -9 4 5 14 24 23 24 12z m76 -51 c0 -13 -5 -21 -10 -17 -5 3 -6 -3
-2 -13 5 -15 4 -16 -9 -5 -23 19 -18 0 7 -29 19 -22 18 -22 -7 2 -28 27 -29
29 -12 42 10 7 14 16 8 19 -5 3 -17 -1 -25 -10 -9 -8 -16 -10 -16 -4 0 6 7 13
15 16 8 4 12 10 9 15 -3 5 -1 9 5 9 5 0 11 -6 14 -12 2 -7 8 -10 12 -6 5 5 0
18 -11 30 l-19 23 21 -18 c12 -10 21 -29 20 -42z m260 18 c-8 -15 -15 -25 -16
-21 0 12 23 58 27 54 3 -2 -2 -17 -11 -33z m20 -20 c-14 -26 -25 -45 -26 -41
0 12 43 98 48 94 2 -2 -8 -26 -22 -53z m30 0 c-14 -26 -25 -45 -26 -41 0 12
43 98 48 94 2 -2 -8 -26 -22 -53z m30 0 c-14 -26 -25 -45 -26 -41 0 12 43 98
48 94 2 -2 -8 -26 -22 -53z m30 0 c-14 -26 -25 -45 -26 -41 0 12 43 98 48 94
2 -2 -8 -26 -22 -53z m30 0 c-14 -26 -25 -45 -26 -41 0 12 43 98 48 94 2 -2
-8 -26 -22 -53z m30 0 c-14 -26 -25 -45 -26 -41 0 12 43 98 48 94 2 -2 -8 -26
-22 -53z m30 0 c-14 -26 -25 -45 -26 -41 0 12 43 98 48 94 2 -2 -8 -26 -22
-53z m30 0 c-14 -26 -25 -45 -26 -41 0 12 43 98 48 94 2 -2 -8 -26 -22 -53z
m30 0 c-14 -26 -25 -45 -26 -41 0 12 43 98 48 94 2 -2 -8 -26 -22 -53z m30 0
c-14 -26 -25 -45 -26 -41 0 12 43 98 48 94 2 -2 -8 -26 -22 -53z m30 0 c-14
-26 -25 -45 -26 -41 0 12 43 98 48 94 2 -2 -8 -26 -22 -53z m30 0 c-14 -26
-25 -45 -26 -41 0 12 43 98 48 94 2 -2 -8 -26 -22 -53z m35 10 c-11 -21 -20
-35 -21 -31 0 12 33 78 38 74 2 -2 -6 -21 -17 -43z m35 10 c-8 -15 -15 -25
-16 -21 0 12 23 58 27 54 3 -2 -2 -17 -11 -33z m35 10 c-12 -20 -14 -14 -5 12
4 9 9 14 11 11 3 -2 0 -13 -6 -23z m60 -11 c-6 -2 -9 -8 -6 -12 3 -5 1 -11 -5
-15 -14 -8 -13 8 2 41 11 24 14 25 17 9 2 -11 -2 -21 -8 -23z m49 30 c0 -5 -7
-17 -15 -28 -15 -19 -20 -8 -9 20 6 17 24 22 24 8z m40 0 c0 -5 -7 -9 -15 -9
-8 0 -15 4 -15 9 0 4 7 8 15 8 8 0 15 -4 15 -8z m-1718 -24 c-7 -7 -12 -8 -12
-2 0 14 12 26 19 19 2 -3 -1 -11 -7 -17z m645 15 c-4 -3 -2 -12 4 -19 12 -15
-8 -74 -25 -74 -4 0 -1 11 8 25 21 32 22 52 1 35 -8 -7 -15 -18 -15 -26 0 -7
-4 -16 -10 -19 -7 -4 -7 3 0 20 15 38 30 65 37 65 3 0 3 -3 0 -7z m47 -1 c2
-4 -4 -8 -14 -8 -10 0 -16 4 -14 8 3 4 9 8 14 8 5 0 11 -4 14 -8z m-622 -29
c-9 -16 -20 -17 -93 -14 l-84 4 70 8 c39 5 75 7 82 4 6 -2 14 3 17 12 4 9 9
13 12 10 3 -3 1 -14 -4 -24z m524 -22 c-9 -10 -16 -23 -16 -29 0 -6 -5 -14
-11 -17 -5 -4 -3 10 6 32 9 21 20 45 23 53 5 12 7 12 10 -3 2 -10 -3 -26 -12
-36z m123 10 c-26 -56 -41 -60 -16 -6 12 25 24 45 28 45 4 0 -1 -18 -12 -39z
m-845 13 c5 -14 4 -15 -9 -4 -17 14 -19 20 -6 20 5 0 12 -7 15 -16z m627 -17
c-10 -9 -11 -8 -5 6 3 10 9 15 12 12 3 -3 0 -11 -7 -18z m28 -15 c-6 -18 -15
-32 -20 -32 -5 0 -1 16 8 35 20 42 27 40 12 -3z m41 24 c0 -8 -9 -24 -20 -37
l-20 -24 17 38 c18 40 23 45 23 23z m112 -21 c-9 -19 -20 -35 -24 -35 -4 0 0
16 9 35 9 19 20 35 24 35 3 0 -1 -16 -9 -35z m59 8 c-12 -20 -14 -14 -5 12 4
9 9 14 11 11 3 -2 0 -13 -6 -23z m30 0 c-12 -20 -14 -14 -5 12 4 9 9 14 11 11
3 -2 0 -13 -6 -23z m-908 -17 c13 7 10 4 -35 -35 l-27 -24 3 24 c1 13 6 32 11
42 6 15 10 16 16 5 7 -10 9 -8 10 7 2 17 2 17 6 -3 3 -13 9 -20 16 -16z m1048
-9 c-10 -9 -11 -8 -5 6 3 10 9 15 12 12 3 -3 0 -11 -7 -18z m-427 -21 c-3 -14
-10 -26 -15 -26 -4 0 -3 14 3 31 12 36 22 33 12 -5z m387 1 c-10 -9 -11 -8 -5
6 3 10 9 15 12 12 3 -3 0 -11 -7 -18z m-425 -22 c-4 -14 -12 -25 -18 -25 -9 0
-9 3 0 12 7 7 12 21 12 32 0 10 3 17 6 13 4 -3 4 -18 0 -32z m110 -30 c4 -26
-13 -16 -19 11 -3 18 -1 22 6 15 6 -6 12 -18 13 -26z m184 22 c0 -7 -7 -22
-15 -33 -13 -17 -14 -16 -4 14 11 33 19 41 19 19z m6 -56 c-14 -27 -30 -52
-36 -56 -6 -4 -8 -10 -6 -14 3 -4 1 -13 -5 -21 -7 -12 -9 -11 -9 5 -1 21 -22
55 -34 55 -4 0 -5 -4 -2 -9 4 -5 2 -20 -3 -33 -6 -15 -10 -17 -10 -7 -1 9 -4
31 -7 48 -4 21 -3 31 5 31 7 0 9 -4 6 -10 -9 -14 4 -12 19 3 7 7 11 17 9 23
-2 6 3 11 11 11 8 0 12 -6 9 -14 -3 -7 0 -13 7 -13 7 0 10 -7 7 -15 -4 -8 -3
-17 2 -19 4 -3 18 20 31 50 14 30 26 51 28 45 2 -5 -8 -32 -22 -60z m-342 35
c-3 -9 -10 -16 -15 -16 -5 0 -4 9 3 20 14 22 21 20 12 -4z m114 -11 c-14 -31
-18 -28 -11 7 3 15 9 25 14 23 4 -3 3 -17 -3 -30z m895 20 c-3 -9 -8 -14 -10
-11 -3 3 -2 9 2 15 9 16 15 13 8 -4z m-1338 -15 c-20 -22 -8 -28 15 -7 12 10
12 9 1 -5 -7 -9 -10 -22 -6 -29 6 -8 9 -8 15 1 5 8 9 5 13 -9 3 -12 1 -19 -4
-15 -5 3 -9 1 -9 -5 0 -5 6 -12 13 -14 9 -4 9 -6 0 -6 -6 -1 -19 9 -27 21 -9
12 -16 18 -17 13 0 -6 -4 -1 -8 10 -7 18 -10 17 -25 -14 -15 -28 -15 -33 -3
-28 11 4 13 0 10 -13 -3 -10 -12 -21 -20 -24 -10 -4 -13 -2 -10 8 3 8 -3 24
-14 37 -10 12 -19 19 -19 16 0 -3 -3 -13 -7 -23 -4 -12 -3 -15 5 -10 8 5 10 2
5 -9 -4 -12 -8 -13 -13 -5 -4 6 -11 11 -16 10 -5 -1 -10 4 -13 11 -2 6 1 9 7
5 6 -4 16 3 22 14 6 11 15 18 19 15 5 -2 14 9 21 25 7 17 17 33 22 36 5 3 0
-12 -11 -34 -12 -23 -17 -43 -12 -46 5 -3 14 8 22 25 7 17 22 40 33 50 26 25
34 24 11 -1z m382 -2 c-3 -8 -6 -5 -6 6 -1 11 2 17 5 13 3 -3 4 -12 1 -19z
m28 -8 c-9 -16 -17 -30 -19 -30 -3 0 1 14 7 30 6 17 15 30 19 30 5 0 2 -13 -7
-30z m346 -22 c-42 -79 -50 -92 -51 -83 0 6 9 28 20 49 18 32 19 40 8 54 -12
15 -11 16 5 3 18 -14 23 -3 7 17 -5 7 -2 5 7 -3 14 -12 15 -18 4 -37z m48 31
c-10 -6 -11 -9 -1 -9 6 0 12 -4 12 -8 0 -4 -9 -8 -20 -8 -23 0 -24 1 -8 25 7
11 16 17 21 14 5 -3 3 -9 -4 -14z m-515 -13 c-3 -9 -10 -16 -15 -16 -5 0 -4 9
3 20 14 22 21 20 12 -4z m556 -11 c0 -5 -5 -3 -10 5 -5 8 -10 20 -10 25 0 6 5
3 10 -5 5 -8 10 -19 10 -25z m30 0 c0 -5 -5 -3 -10 5 -5 8 -10 20 -10 25 0 6
5 3 10 -5 5 -8 10 -19 10 -25z m-533 3 c-3 -8 -6 -5 -6 6 -1 11 2 17 5 13 3
-3 4 -12 1 -19z m237 10 c-3 -4 -11 -5 -19 -1 -21 7 -19 12 4 10 11 0 18 -5
15 -9z m-332 -20 c-7 -7 -12 -8 -12 -2 0 14 12 26 19 19 2 -3 -1 -11 -7 -17z
m645 -12 c-7 -14 -16 -21 -21 -16 -5 5 -2 15 5 24 21 23 29 19 16 -8z m-1082
5 c-6 -5 -22 -13 -37 -16 -22 -6 -28 -4 -28 9 0 12 10 16 37 16 23 0 33 -4 28
-9z m866 -24 c-10 -9 -11 -8 -5 6 3 10 9 15 12 12 3 -3 0 -11 -7 -18z m24 -13
c-8 -16 -15 -23 -15 -16 0 13 22 53 27 48 2 -2 -3 -16 -12 -32z m61 4 c-9 -12
-16 -19 -16 -15 0 11 24 47 28 42 2 -2 -3 -14 -12 -27z m78 8 c-3 -9 -10 -13
-15 -10 -5 3 -9 0 -9 -7 0 -7 -3 -9 -7 -6 -3 4 2 15 13 26 22 21 27 21 18 -3z
m902 -33 c-14 -26 -25 -45 -26 -41 0 12 43 98 48 94 2 -2 -8 -26 -22 -53z m30
0 c-14 -26 -25 -45 -26 -41 0 12 43 98 48 94 2 -2 -8 -26 -22 -53z m-1395 24
c-10 -9 -11 -8 -5 6 3 10 9 15 12 12 3 -3 0 -11 -7 -18z m34 3 c-7 -21 10 -28
18 -7 4 8 6 7 6 -4 1 -8 -6 -24 -15 -35 -14 -17 -15 -17 -10 -1 4 11 1 17 -7
15 -20 -5 -22 5 -6 30 17 27 22 28 14 2z m139 -32 c-8 -23 -9 -31 -12 -75 -1
-13 -6 -23 -12 -23 -6 0 -6 9 0 26 15 38 12 52 -6 29 -16 -19 -16 -19 -9 5 4
14 13 29 19 33 6 5 0 5 -12 2 -21 -6 -23 -5 -13 13 6 11 7 23 3 27 -4 5 -1 5
6 1 6 -4 12 -2 12 4 0 7 7 5 16 -4 10 -11 13 -23 8 -38z m646 17 c0 -5 -5 -3
-10 5 -5 8 -10 20 -10 25 0 6 5 3 10 -5 5 -8 10 -19 10 -25z m-407 10 c-3 -9
-8 -14 -10 -11 -3 3 -2 9 2 15 9 16 15 13 8 -4z m-334 -27 c-5 -17 -14 -36
-20 -42 -9 -8 -10 -6 -4 9 4 11 10 30 12 43 3 12 9 22 13 22 5 0 4 -14 -1 -32z
m-599 16 c0 -3 -7 -12 -15 -20 -12 -13 -15 -13 -15 -1 0 7 3 17 7 20 8 8 23 9
23 1z m810 -6 c0 -7 -4 -19 -9 -27 -6 -9 -8 -5 -8 13 0 14 3 26 8 26 5 0 9 -6
9 -12z m197 -12 c-7 -14 -13 -23 -15 -21 -7 6 9 45 18 45 4 0 3 -11 -3 -24z
m-387 -15 c-10 -35 -29 -71 -30 -55 0 14 29 84 34 84 3 0 1 -13 -4 -29z m125
19 c3 -5 1 -10 -4 -10 -6 0 -11 5 -11 10 0 6 2 10 4 10 3 0 8 -4 11 -10z
m-825 -14 c0 -8 -8 -24 -18 -36 -17 -20 -19 -21 -25 -6 -4 10 1 24 13 36 24
24 30 25 30 6z m300 -6 c0 -5 -7 -10 -16 -10 -8 0 -12 5 -9 10 3 6 10 10 16
10 5 0 9 -4 9 -10z m994 -6 c3 -8 2 -12 -4 -9 -6 3 -10 10 -10 16 0 14 7 11
14 -7z m-1282 -16 c-7 -7 -12 -8 -12 -2 0 14 12 26 19 19 2 -3 -1 -11 -7 -17z
m718 18 c0 -3 -4 -8 -10 -11 -5 -3 -10 -1 -10 4 0 6 5 11 10 11 6 0 10 -2 10
-4z m193 -14 c14 -15 15 -19 2 -19 -8 0 -12 4 -9 8 2 4 0 10 -6 14 -5 3 -10 1
-10 -6 0 -7 -3 -10 -6 -6 -5 5 3 27 10 27 2 0 10 -8 19 -18z m-88 -2 c3 -5 11
-8 18 -6 7 1 9 1 5 -1 -5 -3 -8 -11 -8 -18 0 -8 -4 -17 -10 -20 -6 -3 -7 1 -4
10 4 10 -1 22 -12 30 -11 8 -14 15 -7 15 6 0 14 -4 18 -10z m-550 -10 c3 -5 1
-10 -4 -10 -6 0 -11 5 -11 10 0 6 2 10 4 10 3 0 8 -4 11 -10z m-25 -4 c0 -3
-4 -8 -10 -11 -5 -3 -10 -1 -10 4 0 6 5 11 10 11 6 0 10 -2 10 -4z m558 -21
c-3 -3 -9 2 -12 12 -6 14 -5 15 5 6 7 -7 10 -15 7 -18z m-114 -10 c-4 -8 -8
-15 -10 -15 -2 0 -4 7 -4 15 0 8 4 15 10 15 5 0 7 -7 4 -15z m24 -10 c-6 -14
-13 -23 -16 -21 -7 7 9 46 18 46 5 0 4 -11 -2 -25z m244 18 c-10 -4 -10 -8 0
-21 9 -12 5 -11 -12 3 -14 11 -26 20 -28 21 -2 1 10 1 25 1 15 0 22 -2 15 -4z
m-182 -17 c-5 -5 -10 -17 -10 -26 0 -27 -21 -41 -36 -25 -8 7 -14 18 -14 24 0
17 18 13 30 -6 8 -14 10 -14 9 -3 -3 33 2 47 16 47 11 0 12 -4 5 -11z m75 -13
l-6 -28 17 23 c9 12 21 22 26 22 5 0 2 -7 -6 -16 -9 -8 -16 -23 -16 -32 0 -13
3 -12 16 6 8 12 20 22 25 22 6 0 3 -7 -5 -16 -9 -8 -16 -23 -16 -32 0 -12 -8
-8 -30 13 -16 16 -30 25 -30 20 0 -4 -3 -6 -6 -2 -5 4 23 43 34 46 1 1 0 -11
-3 -26z m313 -8 c-3 -3 -9 2 -12 12 -6 14 -5 15 5 6 7 -7 10 -15 7 -18z m612
5 c0 -5 -2 -10 -4 -10 -3 0 -8 5 -11 10 -3 6 -1 10 4 10 6 0 11 -4 11 -10z
m-16 -19 c3 -4 -4 -19 -16 -32 -11 -13 -18 -17 -14 -9 3 8 9 23 12 33 7 19 10
21 18 8z m-841 -19 c-10 -10 -20 -17 -22 -16 -6 5 20 34 30 34 5 0 1 -8 -8
-18z m61 3 c3 -8 1 -15 -4 -15 -6 0 -10 7 -10 15 0 8 2 15 4 15 2 0 6 -7 10
-15z m94 -20 c-3 -3 -9 2 -12 12 -6 14 -5 15 5 6 7 -7 10 -15 7 -18z m-305 0
c-3 -9 -8 -14 -10 -11 -3 3 -2 9 2 15 9 16 15 13 8 -4z m220 -22 c-4 -10 -9
-11 -19 -2 -11 9 -14 8 -14 -1 0 -8 -3 -11 -6 -7 -10 10 3 23 24 23 12 0 18
-5 15 -13z m134 -5 c3 9 11 6 25 -10 15 -17 21 -19 27 -9 7 11 10 11 14 0 5
-12 7 -11 16 1 8 12 10 11 8 -8 -1 -19 -7 -22 -39 -22 -23 0 -38 -5 -39 -12 0
-9 -2 -9 -6 1 -5 11 -7 11 -14 0 -7 -12 -9 -11 -9 1 0 13 -1 13 -10 0 -6 -10
-10 -11 -10 -2 0 7 -14 12 -35 12 -19 0 -35 -4 -35 -9 0 -5 -9 -7 -20 -4 -11
3 -20 12 -20 20 0 8 -5 11 -12 7 -7 -4 -8 -3 -4 5 4 6 11 9 16 6 4 -3 11 3 15
13 6 16 7 15 18 -3 13 -21 81 -31 74 -11 -6 17 16 36 26 22 6 -8 10 -8 14 2z
m-860 -14 c-3 -3 -12 -4 -19 -1 -8 3 -5 6 6 6 11 1 17 -2 13 -5z m1728 -30
c-8 -9 -15 -20 -15 -25 0 -5 -5 -9 -11 -9 -5 0 -2 13 7 29 10 17 21 28 26 25
4 -3 1 -12 -7 -20z m15 -24 c0 -5 -5 -10 -11 -10 -5 0 -7 5 -4 10 3 6 8 10 11
10 2 0 4 -4 4 -10z m-197 -27 c-7 -2 -19 -2 -25 0 -7 3 -2 5 12 5 14 0 19 -2
13 -5z m185 -5 c-2 -6 -10 -13 -16 -14 -7 -1 -8 0 -2 3 5 2 8 9 4 14 -3 5 0 9
6 9 7 0 10 -5 8 -12z m-191 -14 c-3 -3 -12 -4 -19 -1 -8 3 -5 6 6 6 11 1 17
-2 13 -5z m-1384 -59 c-3 -9 -8 -14 -10 -11 -3 3 -2 9 2 15 9 16 15 13 8 -4z
m1218 -73 c-13 -25 -14 -32 -3 -32 5 0 16 15 26 33 15 29 15 20 0 -18 -3 -8
-2 -15 4 -15 5 0 15 14 22 30 17 40 23 33 8 -8 -12 -30 -15 -32 -65 -32 l-54
0 16 30 c9 17 18 30 21 30 2 0 0 -9 -6 -19 -12 -24 -13 -31 -1 -31 5 0 14 14
21 30 7 17 15 29 17 26 3 -2 0 -13 -6 -24z m96 -2 c0 -19 -4 -27 -10 -21 -5 5
-6 18 -2 30 9 29 12 26 12 -9z m-842 -73 c-19 -43 -37 -77 -39 -77 -3 0 10 34
29 76 19 42 35 79 35 82 0 3 2 3 5 0 3 -3 -10 -39 -30 -81z m678 58 c-3 -9 -8
-14 -10 -11 -3 3 -2 9 2 15 9 16 15 13 8 -4z m-1623 -32 c-11 -17 -11 -17 -6
0 3 10 6 24 7 30 0 9 2 9 5 0 3 -7 0 -20 -6 -30z m34 3 c-3 -9 -10 -16 -15
-16 -6 0 -5 9 1 21 13 24 24 20 14 -5z m24 -22 c-7 -16 -21 -35 -30 -42 -10
-7 -18 -18 -18 -25 0 -6 16 5 36 24 25 24 33 28 28 14 -10 -28 -35 -55 -50
-55 -7 0 -18 -8 -23 -17 -9 -15 -10 -12 -7 13 3 29 64 129 73 120 2 -2 -2 -16
-9 -32z m1792 6 c0 -5 -2 -10 -4 -10 -3 0 -8 5 -11 10 -3 6 -1 10 4 10 6 0 11
-4 11 -10z m-1097 -35 c-9 -19 -18 -33 -21 -31 -4 5 26 66 33 66 3 0 -3 -16
-12 -35z m-23 11 c0 -2 -7 -7 -16 -10 -8 -3 -12 -2 -9 4 6 10 25 14 25 6z
m-637 -33 c-3 -10 -17 -30 -31 -45 -14 -16 -22 -28 -16 -28 5 0 23 17 41 37
26 31 31 33 26 15 -6 -23 -88 -102 -106 -102 -5 0 1 9 14 20 18 15 21 22 11
28 -9 6 -3 19 24 50 39 46 47 51 37 25z m617 -3 c0 -5 -2 -10 -4 -10 -3 0 -8
5 -11 10 -3 6 -1 10 4 10 6 0 11 -4 11 -10z m-574 -36 c-15 -30 -86 -104 -86
-90 0 4 20 31 45 58 25 28 45 55 45 61 0 6 2 8 5 5 3 -2 -1 -18 -9 -34z m134
-35 c-10 -17 -14 -19 -22 -8 -7 10 -8 9 -4 -6 3 -11 1 -27 -4 -35 -8 -13 -10
-12 -10 4 0 19 0 19 -22 0 -16 -14 -15 -10 6 19 16 20 35 37 42 37 8 0 14 8
15 18 0 9 3 12 5 5 3 -7 0 -22 -6 -34z m32 9 c-8 -8 -9 -4 -5 13 4 13 8 18 11
10 2 -7 -1 -18 -6 -23z m-96 13 c8 6 14 7 14 2 0 -13 -79 -88 -86 -81 -3 4 8
17 25 29 22 16 30 29 26 43 -3 12 -2 15 1 8 5 -10 9 -10 20 -1z m474 -11 c0
-5 -5 -10 -11 -10 -5 0 -7 5 -4 10 3 6 8 10 11 10 2 0 4 -4 4 -10z m-400 -41
c-7 -11 -14 -18 -17 -15 -3 3 0 12 7 21 18 21 23 19 10 -6z m430 12 c0 -17
-21 -24 -33 -12 -9 9 -7 10 7 5 13 -5 17 -4 12 4 -4 7 -2 12 3 12 6 0 11 -4
11 -9z m1100 -1 c0 -5 -2 -10 -4 -10 -3 0 -8 5 -11 10 -3 6 -1 10 4 10 6 0 11
-4 11 -10z m-1336 -29 c-8 -8 -43 -8 -38 0 2 4 13 7 24 6 10 -1 17 -3 14 -6z
m40 1 c3 -5 -1 -9 -9 -9 -8 0 -12 4 -9 9 3 4 7 8 9 8 2 0 6 -4 9 -8z m243 2
c-3 -3 -12 -4 -19 -1 -8 3 -5 6 6 6 11 1 17 -2 13 -5z"/>
<path d="M307 1863 c-10 -9 -9 -23 2 -23 5 0 11 7 15 15 5 15 -5 20 -17 8z"/>
<path d="M365 1840 c-3 -5 -1 -10 4 -10 6 0 11 5 11 10 0 6 -2 10 -4 10 -3 0
-8 -4 -11 -10z"/>
<path d="M705 1790 c3 -5 14 -10 23 -10 15 0 15 2 2 10 -20 13 -33 13 -25 0z"/>
<path d="M190 1309 c0 -5 5 -7 10 -4 6 3 10 8 10 11 0 2 -4 4 -10 4 -5 0 -10
-5 -10 -11z"/>
<path d="M275 1269 c-4 -6 -5 -13 -2 -16 7 -7 27 6 27 18 0 12 -17 12 -25 -2z"/>
<path d="M906 762 c-3 -5 1 -18 9 -28 14 -18 15 -18 12 3 -4 27 -13 38 -21 25z"/>
<path d="M1220 491 c0 -6 4 -13 10 -16 6 -3 7 1 4 9 -7 18 -14 21 -14 7z"/>
<path d="M210 2100 c0 -5 5 -10 10 -10 6 0 10 5 10 10 0 6 -4 10 -10 10 -5 0
-10 -4 -10 -10z"/>
<path d="M232 2089 c-7 -12 -11 -23 -8 -26 3 -3 8 2 12 11 3 9 10 13 15 10 5
-3 7 -9 4 -14 -3 -5 -1 -11 3 -14 8 -5 9 13 3 47 -2 13 -16 7 -29 -14z"/>
<path d="M270 2100 c0 -5 5 -10 10 -10 6 0 10 5 10 10 0 6 -4 10 -10 10 -5 0
-10 -4 -10 -10z"/>
<path d="M300 2101 c0 -6 5 -13 10 -16 6 -3 10 1 10 9 0 9 -4 16 -10 16 -5 0
-10 -4 -10 -9z"/>
<path d="M330 2101 c0 -6 5 -13 10 -16 6 -3 10 1 10 9 0 9 -4 16 -10 16 -5 0
-10 -4 -10 -9z"/>
<path d="M360 2101 c0 -6 5 -13 10 -16 6 -3 10 1 10 9 0 9 -4 16 -10 16 -5 0
-10 -4 -10 -9z"/>
<path d="M390 2101 c0 -6 5 -13 10 -16 6 -3 10 1 10 9 0 9 -4 16 -10 16 -5 0
-10 -4 -10 -9z"/>
<path d="M420 2101 c0 -6 5 -13 10 -16 6 -3 10 1 10 9 0 9 -4 16 -10 16 -5 0
-10 -4 -10 -9z"/>
<path d="M450 2101 c0 -6 5 -13 10 -16 6 -3 10 1 10 9 0 9 -4 16 -10 16 -5 0
-10 -4 -10 -9z"/>
<path d="M480 2101 c0 -6 5 -13 10 -16 6 -3 10 1 10 9 0 9 -4 16 -10 16 -5 0
-10 -4 -10 -9z"/>
<path d="M510 2101 c0 -6 5 -13 10 -16 6 -3 10 1 10 9 0 9 -4 16 -10 16 -5 0
-10 -4 -10 -9z"/>
<path d="M540 2101 c0 -6 5 -13 10 -16 6 -3 10 1 10 9 0 9 -4 16 -10 16 -5 0
-10 -4 -10 -9z"/>
<path d="M570 2101 c0 -6 5 -13 10 -16 6 -3 10 1 10 9 0 9 -4 16 -10 16 -5 0
-10 -4 -10 -9z"/>
<path d="M600 2101 c0 -6 5 -13 10 -16 6 -3 10 1 10 9 0 9 -4 16 -10 16 -5 0
-10 -4 -10 -9z"/>
<path d="M630 2101 c0 -6 5 -13 10 -16 6 -3 10 1 10 9 0 9 -4 16 -10 16 -5 0
-10 -4 -10 -9z"/>
<path d="M660 2101 c0 -6 5 -13 10 -16 6 -3 10 1 10 9 0 9 -4 16 -10 16 -5 0
-10 -4 -10 -9z"/>
<path d="M690 2101 c0 -6 5 -13 10 -16 6 -3 10 1 10 9 0 9 -4 16 -10 16 -5 0
-10 -4 -10 -9z"/>
<path d="M720 2101 c0 -6 5 -13 10 -16 6 -3 10 1 10 9 0 9 -4 16 -10 16 -5 0
-10 -4 -10 -9z"/>
<path d="M750 2101 c0 -6 5 -13 10 -16 6 -3 10 1 10 9 0 9 -4 16 -10 16 -5 0
-10 -4 -10 -9z"/>
<path d="M780 2101 c0 -6 5 -13 10 -16 6 -3 10 1 10 9 0 9 -4 16 -10 16 -5 0
-10 -4 -10 -9z"/>
<path d="M810 2101 c0 -6 5 -13 10 -16 6 -3 10 1 10 9 0 9 -4 16 -10 16 -5 0
-10 -4 -10 -9z"/>
<path d="M153 1853 c-15 -5 -17 -23 -4 -23 5 0 11 7 15 15 3 8 4 15 3 14 -1 0
-8 -3 -14 -6z"/>
<path d="M110 1839 c0 -5 5 -7 10 -4 6 3 10 8 10 11 0 2 -4 4 -10 4 -5 0 -10
-5 -10 -11z"/>
<path d="M166 1824 c-5 -14 -4 -15 9 -4 17 14 19 20 6 20 -5 0 -12 -7 -15 -16z"/>
<path d="M10 1808 c0 -9 5 -20 10 -23 13 -8 13 5 0 25 -8 13 -10 13 -10 -2z"/>
<path d="M2096 1555 c4 -8 8 -15 10 -15 2 0 4 7 4 15 0 8 -4 15 -10 15 -5 0
-7 -7 -4 -15z"/>
<path d="M1910 490 c0 -5 5 -10 11 -10 5 0 7 5 4 10 -3 6 -8 10 -11 10 -2 0
-4 -4 -4 -10z"/>
<path d="M1915 330 c10 -11 20 -20 23 -20 3 0 -3 9 -13 20 -10 11 -20 20 -23
20 -3 0 3 -9 13 -20z"/>
<path d="M1945 330 c10 -11 20 -20 23 -20 3 0 -3 9 -13 20 -10 11 -20 20 -23
20 -3 0 3 -9 13 -20z"/>
<path d="M1975 330 c10 -11 20 -20 23 -20 3 0 -3 9 -13 20 -10 11 -20 20 -23
20 -3 0 3 -9 13 -20z"/>
<path d="M1990 346 c0 -2 8 -10 18 -17 15 -13 16 -12 3 4 -13 16 -21 21 -21
13z"/>
<path d="M2042 278 c-30 -69 -23 -71 11 -3 15 30 23 55 19 55 -4 0 -17 -24
-30 -52z"/>
<path d="M2095 319 c-4 -6 -5 -12 -2 -15 2 -3 7 2 10 11 7 17 1 20 -8 4z"/>
<path d="M1916 275 c-9 -26 -7 -32 5 -12 6 10 9 21 6 23 -2 3 -7 -2 -11 -11z"/>
<path d="M1946 275 c-9 -26 -7 -32 5 -12 6 10 9 21 6 23 -2 3 -7 -2 -11 -11z"/>
<path d="M1976 275 c-9 -26 -7 -32 5 -12 6 10 9 21 6 23 -2 3 -7 -2 -11 -11z"/>
<path d="M2006 275 c-9 -26 -7 -32 5 -12 6 10 9 21 6 23 -2 3 -7 -2 -11 -11z"/>
<path d="M2067 255 c-24 -50 -20 -58 4 -12 11 22 19 41 17 43 -3 2 -12 -12
-21 -31z"/>
<path d="M2091 239 c-14 -42 -7 -49 9 -9 7 17 10 33 8 36 -3 3 -11 -9 -17 -27z"/>
<path d="M1916 195 c-9 -26 -7 -32 5 -12 6 10 9 21 6 23 -2 3 -7 -2 -11 -11z"/>
<path d="M1946 195 c-9 -26 -7 -32 5 -12 6 10 9 21 6 23 -2 3 -7 -2 -11 -11z"/>
<path d="M1976 195 c-9 -26 -7 -32 5 -12 6 10 9 21 6 23 -2 3 -7 -2 -11 -11z"/>
<path d="M2091 153 c-10 -26 -10 -27 4 -9 8 11 15 23 15 28 0 15 -7 8 -19 -19z"/>
<path d="M2050 120 c-6 -22 -15 -40 -20 -40 -5 0 -7 7 -4 15 4 8 3 15 0 15 -8
0 -29 -49 -40 -90 -7 -24 -6 -24 8 -6 9 10 13 23 10 27 -3 5 0 9 6 9 6 0 8 5
5 10 -10 16 5 12 23 -7 16 -16 16 -16 0 -10 -10 3 -18 2 -18 -2 0 -5 -2 -15
-5 -23 -4 -10 8 -13 45 -14 l50 -1 -2 44 c-1 26 -4 39 -9 31 -5 -7 -21 -14
-36 -15 -15 -1 -23 1 -18 5 6 4 11 12 11 17 1 6 4 25 7 43 9 45 0 40 -13 -8z
m37 -96 c-3 -3 -12 -4 -19 -1 -8 3 -5 6 6 6 11 1 17 -2 13 -5z"/>
<path d="M1885 109 c-4 -6 -5 -12 -2 -15 2 -3 7 2 10 11 7 17 1 20 -8 4z"/>
<path d="M2076 94 c-8 -20 -8 -24 2 -24 4 0 8 9 9 20 2 24 -3 26 -11 4z"/>
</g>
</svg>
